mtllib materials.mtl
v 0.00503549 -0.03292537 -0.004563123
v 0.003944993 -0.02963626 -0.001027852
v 0.005050838 -0.02690744 -0.0008783042
v 0.006693631 -0.03158188 -0.006327868
v -0.003915668 -0.02811778 -0.01853639
v -0.008212328 -0.02253842 -0.02276731
v -0.009292871 -0.02872038 -0.02503031
v -0.007748812 -0.01721084 -0.005820751
v -0.004380524 -0.01833892 -0.01171631
v -0.01203048 -0.01193404 -0.01281327
v -0.005415946 -0.01991487 -0.01554483
v -0.01485249 -0.01381993 -0.008189023
v -0.02463537 -0.02243853 -0.03371322
v -0.0114817 -0.01877177 -0.01740551
v -0.01899093 -0.01763427 -0.02204132
v -0.03051478 -0.006352305 -0.01698118
v -0.01285085 -0.02091575 -0.01210898
v -0.02135682 -0.01717615 -0.03048897
v -0.03573039 -0.0156976 -0.03822547
v -0.02448663 -0.01441753 -0.02594811
v -0.03153563 -0.01173759 -0.03002745
v -0.02642235 -0.006567121 -0.02012396
v -0.03980818 -0.00520134 -0.02639747
v -0.03629211 -0.01443529 -0.02964014
v -0.03317913 -0.01136947 -0.03522921
v -0.043354 -0.01188076 -0.03807753
v -0.03506327 -0.005213499 -0.02936077
v -0.04557216 -0.006925464 -0.0322113
v -0.03885597 -0.007885814 -0.03536499
v -0.04869837 -0.008846998 -0.03710902
v -0.003484398 -0.02255952 -0.01710314
v -0.02947944 -0.01782489 -0.02647054
v -0.02113104 -0.02146518 -0.01930165
v 0.0008668005 -0.02230656 -0.002308816
v 0.004902273 -0.02403533 -0.002876818
v 0.00680837 -0.02294493 -0.004335701
v 0.0009102225 -0.02013576 -0.003499687
v 0.002513766 -0.01077592 0.00784111
v 0.006690502 -0.005965233 0.01149943
v 0.001366287 -0.006684661 0.01409248
v 0.01627612 -0.01733077 0.005890399
v 0.01256996 -0.01255095 0.004749388
v 0.01931289 -0.01043892 0.01028451
v 0.0103595 -0.01026976 0.006864727
v 0.02008173 -0.0152688 0.01183167
v 0.007604241 0.0002070665 0.02800909
v 0.01227877 -0.009303212 0.01221427
v 0.01367804 -0.006359458 0.01947293
v 0.02730539 -0.007889748 0.02582949
v 0.01267397 -0.01453865 0.01242036
v 0.01192746 0.0001561642 0.02349684
v 0.01442379 0.004622459 0.03723156
v 0.01641631 -0.002890825 0.02448314
v 0.01909035 0.0002686977 0.0309369
v 0.02502063 -0.004836679 0.02322435
v 0.02763918 -0.001421452 0.03578332
v 0.01835936 -0.001805544 0.03531805
v 0.0181303 0.004284382 0.03355572
v 0.01952195 0.004766226 0.0429
v 0.02539811 0.001667619 0.03254902
v 0.025931 0.001643062 0.04239121
v 0.02235281 0.004830599 0.03772241
v 0.02365947 0.004316211 0.04659173
v 0.007249922 -0.009735465 0.006114006
v 0.01489297 -0.004548788 0.02941942
v 0.01211748 -0.01032484 0.02127317
v 0.008724272 0.04439592 -0.005655527
v 0.005930185 0.04439592 -0.007718503
v 0.005930394 -0.1233445 -0.007718503
v 0.008724481 -0.1233445 -0.005655527
v 0.002478927 0.04439592 -0.00810802
v 0.002479136 -0.1233445 -0.00810802
v -0.0007046759 0.04439592 -0.006719708
v -0.0007044971 -0.1233445 -0.006719708
v -0.002767652 0.04439592 -0.003925592
v -0.002767444 -0.1233445 -0.003925592
v -0.003157169 0.04439592 -0.0004743636
v -0.00315696 -0.1233445 -0.0004743636
v -0.001768887 0.04439592 0.00270927
v -0.001768678 -0.1233445 0.00270927
v 0.00102523 0.04439592 0.004772186
v 0.001025438 -0.1233445 0.004772216
v 0.004476458 0.04439592 0.005161732
v 0.004476666 -0.1233445 0.005161732
v 0.007660091 0.04439592 0.003773421
v 0.0076603 -0.1233445 0.003773451
v 0.009723037 0.04439592 0.0009793043
v 0.009723246 -0.1233445 0.0009793341
v 0.01011255 0.04439592 -0.002471924
v 0.01011276 -0.1233445 -0.002471894
v 0.0209367 0.02299416 0.01823571
v 0.009039223 0.02283084 0.02452248
v 0.0125908 0.04839349 0.04070058
v 0.03175184 0.04865634 0.03057566
v 0.02809578 0.02330029 0.006844759
v 0.02859819 0.02366734 -0.006598175
v 0.01987818 0.01842165 -0.004750848
v 0.01954857 0.01818085 0.00406909
v 0.0223093 0.02399695 -0.01849109
v 0.01575202 0.0186379 -0.01255381
v 0.01091424 0.02420068 -0.02564728
v 0.008275717 0.01877165 -0.01724893
v -0.002533734 0.02422416 -0.02614927
v -0.0005474687 0.01878703 -0.0175783
v -0.01443121 0.02406085 -0.01986247
v -0.008353412 0.01867986 -0.01345354
v -0.02159026 0.02375472 -0.008471489
v -0.01305047 0.01847899 -0.005979896
v -0.02209267 0.02338767 0.004971445
v -0.01338011 0.01823819 0.002839983
v -0.01580378 0.02305806 0.01686436
v -0.009253979 0.01802194 0.01064298
v -0.004408717 0.02285433 0.02402052
v -0.001777649 0.01788831 0.01533809
v 0.007045537 0.01787293 0.01566741
v 0.01485148 0.01797998 0.01154265
v 0.01197365 0.01311719 -0.0007716715
v 0.007891864 0.01333106 -0.008490682
v -0.0008363724 0.01334631 -0.008816481
v -0.005482912 0.01314759 -0.00142324
v -0.001401186 0.01293361 0.006295741
v 0.00732711 0.01291847 0.00662154
v -0.009067237 0.04843116 0.0398922
v -0.02741912 0.04875946 0.02836716
v -0.03754744 0.04929018 0.009213418
v -0.03673831 0.04988134 -0.01243657
v -0.02520856 0.05037439 -0.03078181
v -0.006047517 0.05063736 -0.04090673
v 0.01561052 0.05059958 -0.04009837
v 0.03396237 0.05027139 -0.02857322
v 0.04409072 0.04974055 -0.00941956
v 0.04328158 0.04914951 0.01223046
v 0.01465982 0.1115441 0.01382071
v -0.001598269 0.1114545 0.01753142
v -0.01294187 0.1117966 0.005312175
v -0.008027315 0.1122284 -0.01061779
v 0.008230805 0.1123182 -0.01432854
v 0.01957437 0.111976 -0.002109289
v 0.00575158 0.1115931 0.01226434
v 0.01112115 0.1064007 0.009602726
v -2.974272E-05 0.1054265 0.01198888
v -0.004703939 0.1116887 0.009041339
v -0.007075757 0.1073333 0.004067153
v -0.007139266 0.1119819 -0.001621574
v -0.003994167 0.1074215 -0.005873084
v 0.0008809268 0.1121795 -0.009061456
v 0.006569028 0.1072323 -0.008983254
v 0.01133642 0.1120838 -0.005838454
v 0.0144493 0.1064075 -0.0008271337
v 0.01377177 0.1117907 0.00482443
v 0.005740017 0.09600031 0.01183808
v 0.01074722 0.0960691 0.009192228
v 8.025765E-05 0.09601021 0.01162684
v -0.004715472 0.09609604 0.008615106
v -0.007362247 0.09623468 0.003609776
v -0.007150799 0.09638917 -0.002047837
v -0.004137814 0.09651804 -0.006841838
v 0.0008693933 0.0965867 -0.009487748
v 0.006529123 0.09657681 -0.009276509
v 0.01132488 0.0964911 -0.006264687
v 0.01397163 0.09635234 -0.001259416
v 0.01376024 0.09619796 0.004398197
v -0.01158187 0.1224177 -0.00270927
v -0.0001446605 0.1233615 -0.01229805
v -0.007086277 0.1226333 0.01274633
v 0.00637719 0.1221229 0.01560861
v 0.01710972 0.1219372 0.005666137
v 0.01272649 0.1233445 -0.007608354
vn 0.7625762 -0.3392211 0.5508236
vn 0.7616404 0.1011747 -0.6400529
vn -0.7504371 -0.5962386 0.2852083
vn 0.7905034 0.5618962 -0.2436741
vn 0.2287035 -0.8660972 -0.444489
vn -0.3101319 0.07373834 0.9478297
vn 0.6134923 0.657944 -0.4367345
vn 0.2382238 0.8397826 0.4878676
vn -0.4931858 -0.728185 0.4759354
vn 0.5439118 0.2029891 -0.8142208
vn 0.3622628 0.8521137 -0.377714
vn 0.161603 0.8753794 0.4556264
vn -0.5929744 -0.5110376 0.6222717
vn 0.4797548 0.2213131 -0.8490323
vn 0.4528034 0.8656051 -0.2137688
vn 0.08290057 0.9957588 0.03990031
vn -0.6594587 -0.4599215 0.5946315
vn 0.2167032 0.4660919 -0.8577868
vn -0.04699346 0.923278 -0.3812473
vn -0.1102435 0.9773677 -0.1805513
vn -0.3674074 -0.7549106 0.5432511
vn 0.4763412 0.2930975 -0.8289711
vn 0.8452682 0.4808522 -0.2330298
vn 0.4356947 0.6873467 -0.581141
vn 0.05904463 0.9941491 0.09045094
vn 0.5480067 0.1614577 -0.8207437
vn 0.6742177 0.5400116 -0.5038036
vn 0.2314907 0.9435377 0.2369569
vn 0.1090336 0.4714431 -0.8751304
vn -0.02971512 0.9368113 -0.3485711
vn -0.3459079 -0.7771664 0.5256997
vn 0.7636499 0.1050121 -0.6370332
vn 0.7888007 0.5406533 -0.2923823
vn 0.7651687 0.1044476 -0.6353012
vn 0.5499943 0.6993845 -0.4564731
vn 0.555596 0.815645 0.1613573
vn 0.611334 0.7649176 0.2029084
vn -0.7664433 -0.5707658 0.2946036
vn 0.2362282 0.3496156 -0.906623
vn -0.4752204 -0.8508363 0.2241501
vn -0.5896483 -0.6942158 0.4127706
vn 0.532939 0.4787375 -0.6977009
vn 0.2917064 0.8572335 -0.4243326
vn 0.5068279 0.5082835 -0.6962568
vn 0.3381065 0.5432485 -0.7684824
vn 0.4096008 0.9099191 -0.06537917
vn 0.6892954 0.4321242 -0.5814986
vn 0.5602471 0.8206627 -0.1124095
vn 0.5621349 0.5776904 -0.5918431
vn 0.4665415 0.8803968 -0.08509167
vn -0.6786851 -0.5034969 0.5346751
vn -0.5080413 -0.8390422 0.1946856
vn 0.5221776 0.1968115 0.8298167
vn -0.47816 -0.8707554 0.1146645
vn -0.5617277 -0.5568157 0.6118973
vn -0.5896483 -0.6942158 0.4127706
vn -0.3138185 -0.8485056 0.4260943
vn -0.5659107 -0.4567668 0.6863741
vn -0.6250958 -0.3402822 -0.7024693
vn -0.4931858 -0.728185 0.4759354
vn -0.4931858 -0.728185 0.4759354
vn -0.3272094 -0.5004562 -0.801547
vn -0.3710002 0.7443542 -0.5552437
vn -0.1981065 -0.637513 0.744534
vn 0.1709138 0.5930135 -0.786844
vn -0.9941021 0.06676576 0.08545855
vn 0.5021596 -0.8647193 0.009816814
vn 0.2384487 0.7744532 -0.5859731
vn 0.8470309 -0.03506422 -0.5303859
vn -0.3221575 -0.8181404 0.476299
vn -0.2793384 0.9043617 -0.3226452
vn 0.5063418 0.7607114 -0.4061232
vn 0.8896368 -0.004660611 -0.4566449
vn -0.04754696 -0.8732784 0.484896
vn -0.2566343 0.9318836 -0.2563821
vn 0.5507388 0.6365952 -0.5398456
vn 0.8683484 0.4020549 -0.2903839
vn 0.007393677 -0.8386011 0.5446957
vn 0.03482629 0.9977871 -0.05663987
vn 0.6902204 0.7227246 -0.03556527
vn 0.8297766 0.5563948 -0.04353745
vn -0.3588906 -0.8673611 0.3447928
vn -0.1849837 0.943965 -0.2733334
vn 0.08689448 0.5586758 -0.8248217
vn 0.2650892 0.8842218 -0.384551
vn 0.892427 0.3523066 -0.2818759
vn -0.3195792 0.8932257 -0.3162547
vn 0.09186285 0.7945168 -0.6002535
vn 0.8494352 0.2307294 -0.4745773
vn 0.06544024 0.9966934 0.04816355
vn 0.7088675 0.7024602 -0.06369103
vn -0.3913338 -0.8574765 0.3340536
vn -0.3671179 0.7436525 -0.5587534
vn 0.1349819 0.6269598 -0.7672686
vn -0.3674409 0.742139 -0.5605506
vn 0.2868297 0.7985213 -0.5292376
vn 0.6122103 0.300063 -0.7315467
vn 0.5658799 0.2513199 -0.7852504
vn -0.1674305 -0.6378279 0.7517597
vn -0.09153142 0.9950889 -0.03768238
vn -0.5272328 -0.6434513 0.554974
vn -0.2862901 -0.7644181 0.5776704
vn 0.009591767 0.9160928 -0.4008517
vn 0.5150183 0.7919961 -0.3278691
vn 0.04399453 0.9228096 -0.3827361
vn 0.09905405 0.9724046 -0.2112287
vn 0.6566712 0.5160722 -0.5499567
vn -0.03607134 0.8203279 -0.5707548
vn 0.5157825 0.5461968 -0.6600283
vn 0.1266365 0.8691881 -0.4779908
vn 0.6064339 0.530969 -0.5918697
vn -0.04709102 -0.8072062 0.588388
vn -0.5177173 -0.6179896 0.5916567
vn 0.319019 -0.5624753 -0.7627898
vn -0.5837082 -0.5551687 0.5925135
vn -0.1010527 -0.8780631 0.4677536
vn -0.2862901 -0.7644181 0.5776704
vn -0.5000654 -0.7937085 0.3463543
vn 0.01553819 -0.9024459 0.4305231
vn -0.3685744 0.3704526 0.8525947
vn -0.3221575 -0.8181404 0.476299
vn -0.3221575 -0.8181404 0.476299
vn 0.5939673 7.065291E-07 -0.8044892
vn 0.1121533 6.536941E-08 -0.993691
vn -0.3997224 -5.158693E-07 -0.9166363
vn -0.8044862 -1.005375E-06 -0.5939714
vn -0.9936911 -1.253701E-06 -0.1121512
vn -0.9166381 -1.170312E-06 0.3997182
vn -0.5939657 -6.345572E-07 0.8044904
vn -0.1121536 -7.327292E-08 0.9936909
vn 0.3997225 6.212314E-07 0.9166363
vn 0.8044862 1.093672E-06 0.5939714
vn 0.9936911 1.248401E-06 0.1121511
vn 0.9166383 1.07009E-06 -0.3997179
vn -9.809727E-06 1 6.802461E-06
vn 1.243124E-06 -1 2.654244E-08
vn 0.4021732 -0.5288696 0.7473645
vn 0.5148276 -0.8572837 -0.00416672
vn 0.4553986 -0.8501296 -0.2643705
vn 0.2737809 -0.8446522 -0.4600073
vn 0.01863891 -0.8423191 -0.5386568
vn -0.2416619 -0.8437553 -0.4792458
vn -0.4373755 -0.8485766 -0.2976919
vn -0.5160593 -0.8554906 -0.04264504
vn -0.4566326 -0.8626444 0.2175577
vn -0.275015 -0.8681219 0.4131962
vn -0.01987394 -0.8704556 0.4918455
vn 0.2404277 -0.8690192 0.4324352
vn 0.4361424 -0.8641976 0.2508829
vn 0.5565748 -0.8307953 -0.001883886
vn 0.4449131 -0.8572971 -0.2590253
vn 0.2960139 -0.8171421 -0.4946256
vn 0.01819163 -0.8496667 -0.5270063
vn -0.2611542 -0.8161741 -0.5154205
vn -0.4273411 -0.8557813 -0.2915786
vn -0.5577652 -0.8288593 -0.04347718
vn -0.4461552 -0.8695258 0.2118266
vn -0.2972073 -0.8425129 0.4492659
vn -0.01943705 -0.8771553 0.4798133
vn 0.2599622 -0.8434793 0.4700662
vn 0.4261003 -0.8710415 0.2443874
vn -0.0007208353 -0.9996265 -0.02732048
vn -0.03252375 -0.5312665 0.8465803
vn -0.4586048 -0.5273682 0.7152374
vn -0.7619032 -0.518218 0.3885274
vn -0.8611474 -0.5062695 -0.04600644
vn -0.7297455 -0.4947233 -0.4719326
vn -0.4029062 -0.4866731 -0.7751231
vn 0.03179072 -0.4842771 -0.8743369
vn 0.4578739 -0.4881759 -0.7429912
vn 0.7611678 -0.4973251 -0.4162827
vn 0.8604107 -0.5092744 0.01825097
vn 0.7290094 -0.5208204 0.4441751
vn 0.4356399 0.3404064 0.8332715
vn -0.03451923 0.337811 0.9405808
vn -0.4953581 0.3420233 0.798524
vn -0.8234009 0.351915 0.4451594
vn -0.9307409 0.364836 -0.02482298
vn -0.7886196 0.3773238 -0.4854955
vn -0.4351162 0.3860324 -0.8134205
vn 0.03504175 0.3886285 -0.920728
vn 0.4958858 0.384416 -0.7786666
vn 0.8239215 0.374524 -0.425306
vn 0.9312611 0.3616031 0.04467616
vn 0.7891396 0.3491153 0.5053486
vn 0.1449113 0.5659021 -0.8116376
vn -0.5082033 0.507533 -0.6958015
vn 0.8273768 0.4813645 -0.2893716
vn 0.327815 0.627776 -0.7059991
vn 0.5872028 0.6299834 0.5082459
vn 0.7937934 0.6050416 -0.06177963
vn -0.1288577 0.6397722 0.7576855
vn 0.476263 0.5583333 0.6792918
vn -0.7702602 0.5641792 0.2973233
vn -0.3506058 0.5043806 0.789098
vn -0.6735751 0.4931887 -0.5505103
vn -0.8556995 0.5080334 0.09838983
vn -0.4244228 0.02505689 -0.9051174
vn 0.006550624 0.03849467 -0.9992373
vn 0.5544983 0.02233041 -0.8318853
vn 0.9045811 -0.00578261 -0.4262625
vn 0.9999337 -0.0004253894 -0.01151076
vn 0.8467551 -0.01516335 0.5317668
vn 0.4673182 -0.02450452 0.8837495
vn -0.03751781 -0.02734857 0.9989216
vn -0.5342977 -0.02270368 0.8449914
vn -0.8407648 0.01667464 0.5411438
vn -0.9924144 0.004093342 -0.1228706
vn -0.8467526 0.01516346 -0.5317707
vn 0.0007208353 0.9996265 0.02732048
vn -0.928879 0.2915044 0.2284931
vn -0.6433413 0.3165941 -0.6970511
vn 0.7092187 0.364795 0.603269
vn 0.9201136 0.3833259 -0.08032493
vn -0.6187749 0.330564 -0.7126325
vn 0.2276673 0.3404064 -0.9123
vn -0.1647825 0.2602566 0.9513744
vn 0.5561112 0.2777357 0.7833283
vn -0.2620733 0.2681577 0.9270433
vn -0.9123777 0.3081085 0.2695108
vn 0.8974688 0.3036509 -0.3199156
vn 0.3871258 0.3701361 -0.844472
vn 0.560297 0.3087873 0.7685816
vn -0.1800838 0.3032764 0.9357314
vn 0.1662767 0.2895007 -0.9426248
vn -0.5626135 0.280429 -0.7777054
vn 0.9375505 0.3262204 -0.1207443
vn 0.7206177 0.3148185 0.6177374
vn -0.7370716 0.2929966 -0.6089981
vn -0.947457 0.3032407 0.1018358
vn 0.3916788 0.3571115 -0.8479735
vn 0.8674259 0.3527586 -0.3509042
vn -0.9242944 0.1679661 0.3427353
vn -0.4027773 0.1904344 0.8952683
vn -0.8962124 0.04995101 -0.4408041
vn 0.7665083 -0.06685252 0.6387454
vn 0.5983327 -0.07873061 0.7973704
usemtl mat9
f 4//1 3//1 2//1 1//1
f 7//2 6//2 5//2
f 2//3 8//3 5//3
f 9//4 3//4 4//4
f 5//5 4//5 1//5
f 3//6 8//6 2//6
f 11//7 10//7 9//7
f 10//8 12//8 8//8
f 7//9 5//9 8//9
f 13//10 6//10 7//10
f 15//11 14//11 6//11
f 16//12 12//12 10//12
f 16//13 17//13 12//13
f 19//14 18//14 13//14
f 21//15 20//15 18//15
f 23//16 16//16 22//16
f 23//17 24//17 16//17
f 26//18 25//18 19//18
f 29//19 28//19 27//19
f 28//20 23//20 27//20
f 28//21 26//21 19//21 23//21
f 19//22 25//22 18//22
f 25//23 27//23 21//23
f 29//24 27//24 25//24
f 22//25 27//25 23//25
f 13//26 18//26 6//26
f 15//27 20//27 22//27
f 10//28 22//28 16//28
f 29//29 26//29 30//29
f 29//30 30//30 28//30
f 28//31 30//31 26//31
f 6//32 31//32 5//32
f 4//33 31//33 9//33
f 5//34 31//34 4//34
f 11//35 9//35 31//35 6//35
f 3//36 9//36 8//36
f 8//37 9//37 10//37
f 5//38 1//38 2//38
f 25//39 26//39 29//39
f 32//40 13//40 7//40
f 19//41 13//41 24//41
f 15//42 22//42 10//42
f 11//43 6//43 14//43
f 10//44 14//44 15//44
f 11//45 14//45 10//45
f 15//46 6//46 18//46
f 21//47 27//47 22//47
f 18//48 20//48 15//48
f 22//49 20//49 21//49
f 18//50 25//50 21//50
f 33//51 16//51 32//51
f 24//52 13//52 32//52
f 16//53 33//53 7//53
f 7//54 33//54 32//54
f 24//55 32//55 16//55
f 23//56 19//56 24//56
f 33//57 7//57 17//57
f 16//58 33//58 17//58
f 7//59 33//59 16//59
f 17//60 7//60 8//60
f 12//61 17//61 8//61
f 37//62 36//62 35//62 34//62
f 40//63 39//63 38//63
f 35//64 41//64 38//64
f 42//65 36//65 37//65
f 38//66 37//66 34//66
f 36//67 41//67 35//67
f 44//68 43//68 42//68
f 43//69 45//69 41//69
f 40//70 38//70 41//70
f 46//71 39//71 40//71
f 48//72 47//72 39//72
f 49//73 45//73 43//73
f 49//74 50//74 45//74
f 52//75 51//75 46//75
f 54//76 53//76 51//76
f 56//77 49//77 55//77
f 56//78 57//78 49//78
f 59//79 58//79 52//79
f 62//80 61//80 60//80
f 61//81 56//81 60//81
f 61//82 59//82 52//82 56//82
f 52//83 58//83 51//83
f 58//84 60//84 54//84
f 62//85 60//85 58//85
f 55//86 60//86 56//86
f 46//87 51//87 39//87
f 48//88 53//88 55//88
f 43//89 55//89 49//89
f 62//90 59//90 63//90
f 62//91 63//91 61//91
f 61//92 63//92 59//92
f 39//93 64//93 38//93
f 37//94 64//94 42//94
f 38//95 64//95 37//95
f 44//96 42//96 64//96 39//96
f 36//97 42//97 41//97
f 41//98 42//98 43//98
f 38//99 34//99 35//99
f 58//100 59//100 62//100
f 65//101 46//101 40//101
f 52//102 46//102 57//102
f 48//103 55//103 43//103
f 44//104 39//104 47//104
f 43//105 47//105 48//105
f 44//106 47//106 43//106
f 48//107 39//107 51//107
f 54//108 60//108 55//108
f 51//109 53//109 48//109
f 55//110 53//110 54//110
f 51//111 58//111 54//111
f 66//112 49//112 65//112
f 57//113 46//113 65//113
f 49//114 66//114 40//114
f 40//115 66//115 65//115
f 57//116 65//116 49//116
f 56//117 52//117 57//117
f 66//118 40//118 50//118
f 49//119 66//119 50//119
f 40//120 66//120 49//120
f 50//121 40//121 41//121
f 45//122 50//122 41//122
f 70//123 69//123 68//123 67//123
f 69//124 72//124 71//124 68//124
f 72//125 74//125 73//125 71//125
f 74//126 76//126 75//126 73//126
f 76//127 78//127 77//127 75//127
f 78//128 80//128 79//128 77//128
f 80//129 82//129 81//129 79//129
f 82//130 84//130 83//130 81//130
f 84//131 86//131 85//131 83//131
f 86//132 88//132 87//132 85//132
f 88//133 90//133 89//133 87//133
f 90//134 70//134 67//134 89//134
f 67//135 68//135 71//135 73//135 75//135 77//135 79//135 81//135 83//135 85//135 87//135 89//135
f 90//136 88//136 86//136 84//136 82//136 80//136 78//136 76//136 74//136 72//136 69//136 70//136
usemtl mat8
f 94//137 93//137 92//137 91//137
f 98//138 97//138 96//138 95//138
f 97//139 100//139 99//139 96//139
f 100//140 102//140 101//140 99//140
f 102//141 104//141 103//141 101//141
f 104//142 106//142 105//142 103//142
f 106//143 108//143 107//143 105//143
f 108//144 110//144 109//144 107//144
f 110//145 112//145 111//145 109//145
f 112//146 114//146 113//146 111//146
f 114//147 115//147 92//147 113//147
f 115//148 116//148 91//148 92//148
f 116//149 98//149 95//149 91//149
f 117//150 97//150 98//150
f 117//151 118//151 100//151 97//151
f 118//152 102//152 100//152
f 118//153 119//153 104//153 102//153
f 119//154 106//154 104//154
f 119//155 120//155 108//155 106//155
f 120//156 110//156 108//156
f 120//157 121//157 112//157 110//157
f 121//158 114//158 112//158
f 121//159 122//159 115//159 114//159
f 122//160 116//160 115//160
f 122//161 117//161 98//161 116//161
f 122//162 121//162 120//162 119//162 118//162 117//162
f 93//163 123//163 113//163 92//163
f 123//164 124//164 111//164 113//164
f 124//165 125//165 109//165 111//165
f 125//166 126//166 107//166 109//166
f 126//167 127//167 105//167 107//167
f 127//168 128//168 103//168 105//168
f 128//169 129//169 101//169 103//169
f 129//170 130//170 99//170 101//170
f 130//171 131//171 96//171 99//171
f 131//172 132//172 95//172 96//172
f 132//173 94//173 91//173 95//173
f 133//174 93//174 94//174
f 134//175 123//175 93//175
f 134//176 124//176 123//176
f 135//177 125//177 124//177
f 135//178 126//178 125//178
f 136//179 127//179 126//179
f 136//180 128//180 127//180
f 137//181 129//181 128//181
f 137//182 130//182 129//182
f 138//183 131//183 130//183
f 138//184 132//184 131//184
f 133//185 94//185 132//185
f 140//186 139//186 133//186
f 139//187 141//187 134//187
f 141//188 142//188 134//188
f 142//189 143//189 135//189
f 143//190 144//190 135//190
f 144//191 145//191 136//191
f 145//192 146//192 136//192
f 146//193 147//193 137//193
f 147//194 148//194 137//194
f 148//195 149//195 138//195
f 149//196 150//196 138//196
f 150//197 140//197 133//197
f 152//198 151//198 139//198 140//198
f 151//199 153//199 141//199 139//199
f 153//200 154//200 142//200 141//200
f 154//201 155//201 143//201 142//201
f 155//202 156//202 144//202 143//202
f 156//203 157//203 144//203
f 157//204 158//204 146//204
f 158//205 159//205 147//205 146//205
f 159//206 160//206 148//206 147//206
f 160//207 161//207 149//207 148//207
f 161//208 162//208 150//208 149//208
f 162//209 152//209 150//209
f 162//210 161//210 160//210 159//210 158//210 157//210 156//210 155//210 154//210 153//210 151//210 152//210
f 135//211 163//211 126//211
f 126//212 163//212 136//212
f 144//213 163//213 135//213
f 136//214 163//214 144//214
f 136//215 164//215 128//215
f 128//216 164//216 137//216
f 146//217 164//217 136//217
f 137//218 164//218 146//218
f 134//219 165//219 124//219
f 124//220 165//220 135//220
f 142//221 165//221 134//221
f 135//222 165//222 142//222
f 133//223 166//223 93//223
f 93//224 166//224 134//224
f 139//225 166//225 133//225
f 134//226 166//226 139//226
f 138//227 167//227 132//227
f 132//228 167//228 133//228
f 150//229 167//229 138//229
f 133//230 167//230 150//230
f 137//231 168//231 130//231
f 130//232 168//232 138//232
f 148//233 168//233 137//233
f 138//234 168//234 148//234
f 152//235 140//235 150//235
f 157//236 145//236 144//236
f 146//237 145//237 157//237
